<?xml version="1.0" encoding="UTF-8"?>
<!DOCTYPE svg PUBLIC "-//W3C//DTD SVG 1.1//EN" "http://www.w3.org/Graphics/SVG/1.1/DTD/svg11.dtd">
<!-- Creator: CorelDRAW 2020 (64 Bit) -->
<svg xmlns="http://www.w3.org/2000/svg" xml:space="preserve" width="6.7734mm" height="6.7734mm" version="1.1" style="shape-rendering:geometricPrecision; text-rendering:geometricPrecision; image-rendering:optimizeQuality; fill-rule:evenodd; clip-rule:evenodd"
viewBox="0 0 10.89 10.89"
 xmlns:xlink="http://www.w3.org/1999/xlink"
 xmlns:xodm="http://www.corel.com/coreldraw/odm/2003">
 <defs>
  <style type="text/css">
   <![CDATA[
    .fil2 {fill:none}
    .fil0 {fill:#5C6BC0}
    .fil1 {fill:white}
   ]]>
  </style>
   <clipPath id="id0">
    <path d="M-0 0l10.89 0 0 10.89 -10.89 0 0 -10.89z"/>
   </clipPath>
 </defs>
 <g id="Camada_x0020_1">
  <metadata id="CorelCorpID_0Corel-Layer"/>
  <g>
  </g>
  <g style="clip-path:url(#id0)">
   <g>
    <circle class="fil0" cx="5.44" cy="5.44" r="5.31"/>
    <path class="fil1" d="M4.1 7.86c0.05,-0.12 0.18,-0.22 0.23,-0.34 -0.37,-0.1 -1.1,-0.56 -1.23,-0.81 0.4,0.23 0.52,0.35 1.02,0.5 1.05,0.32 2.2,0.25 3.19,-0.21 0.18,-0.08 0.34,-0.22 0.49,-0.28 -0.46,0.57 -1.14,0.74 -1.23,0.83 0.09,0.08 0.15,0.21 0.25,0.31 0.36,0 0.85,-0.14 1.13,-0.28 0.65,-0.33 0.68,-0.53 0.82,-0.6 -0.04,-1.1 -0.33,-2.23 -0.8,-3.15 -0.11,-0.22 -0.19,-0.26 -0.41,-0.38 -0.29,-0.17 -0.79,-0.39 -1.2,-0.4l-0.07 0.14c0.29,0.11 0.5,0.14 0.76,0.28 0.18,0.1 0.52,0.32 0.6,0.44 -0.21,-0.06 -0.5,-0.27 -0.99,-0.4 -0.93,-0.26 -2.06,-0.2 -2.95,0.19 -0.16,0.07 -0.32,0.16 -0.48,0.22 0.35,-0.38 0.88,-0.59 1.38,-0.73l-0.06 -0.14c-0.39,0 -0.96,0.24 -1.28,0.44 -0.16,0.1 -0.21,0.11 -0.31,0.28 -0.42,0.7 -0.69,1.8 -0.79,2.66 -0.01,0.09 -0.05,0.45 -0.04,0.52 0.02,0.1 0.2,0.23 0.28,0.3 0.39,0.33 1.01,0.62 1.69,0.63z"/>
    <path class="fil0" d="M6.28 5.17c-0.69,0.23 -0.36,1.39 0.31,1.15 0.23,-0.09 0.43,-0.38 0.35,-0.72 -0.06,-0.26 -0.31,-0.54 -0.66,-0.42z"/>
    <path class="fil0" d="M4.32 5.17c-0.16,0.06 -0.23,0.13 -0.31,0.27 -0.24,0.46 0.14,1.04 0.61,0.88 0.25,-0.08 0.43,-0.39 0.35,-0.74 -0.06,-0.26 -0.32,-0.54 -0.66,-0.41z"/>
   </g>
  </g>
  <polygon class="fil2" points="-0,0 10.89,0 10.89,10.89 -0,10.89 "/>
 </g>
</svg>
