<?xml version="1.0" encoding="UTF-8"?>
<!DOCTYPE svg PUBLIC "-//W3C//DTD SVG 1.1//EN" "http://www.w3.org/Graphics/SVG/1.1/DTD/svg11.dtd">
<!-- Creator: CorelDRAW 2020 (64 Bit) -->
<svg xmlns="http://www.w3.org/2000/svg" xml:space="preserve" width="6.7734mm" height="6.7734mm" version="1.1" style="shape-rendering:geometricPrecision; text-rendering:geometricPrecision; image-rendering:optimizeQuality; fill-rule:evenodd; clip-rule:evenodd"
viewBox="0 0 12.04 12.04"
 xmlns:xlink="http://www.w3.org/1999/xlink"
 xmlns:xodm="http://www.corel.com/coreldraw/odm/2003">
 <defs>
  <style type="text/css">
   <![CDATA[
    .fil2 {fill:none}
    .fil1 {fill:#202427}
    .fil0 {fill:white}
   ]]>
  </style>
   <clipPath id="id0">
    <path d="M-0 0l12.04 0 0 12.04 -12.04 0 0 -12.04z"/>
   </clipPath>
 </defs>
 <g id="Camada_x0020_1">
  <metadata id="CorelCorpID_0Corel-Layer"/>
  <g>
  </g>
  <g style="clip-path:url(#id0)">
   <g>
    <circle class="fil0" cx="6" cy="6" r="5.7"/>
    <path class="fil1" d="M8.44 11.32c2.01,-0.92 3.41,-2.96 3.41,-5.32 0,-3.23 -2.62,-5.85 -5.85,-5.85 -3.23,0 -5.85,2.62 -5.85,5.85 0,2.5 1.57,4.63 3.77,5.47 0.53,0.2 0.64,0.22 0.63,-0.46 -0,-0.25 0.01,-0.52 -0.01,-0.76 -0.48,0.01 -1.23,0.26 -1.81,-0.45 -0.23,-0.28 -0.29,-0.77 -0.73,-1.08 -0.13,-0.09 -0.29,-0.15 -0.29,-0.32 0.22,-0.2 0.65,0.01 0.79,0.12 0.26,0.2 0.29,0.33 0.49,0.6 0.53,0.69 1.46,0.41 1.56,0.29 0.05,-0.12 0.08,-0.3 0.13,-0.43l0.16 -0.26c0.06,-0.07 0.03,-0.01 0.08,-0.11 -1.47,-0.13 -2.38,-0.8 -2.6,-2.2 -0.25,-1.65 0.53,-2.17 0.54,-2.3 0,-0.03 -0.09,-0.38 -0.1,-0.5 -0.02,-0.28 0.04,-0.85 0.18,-1.04 0.51,-0.06 1.08,0.28 1.41,0.49 0.29,0.18 0.19,0.09 0.75,-0 0.69,-0.11 1.48,-0.1 2.15,0.07 0.22,0.06 0.2,0.05 0.36,-0.06 0.32,-0.21 0.91,-0.54 1.43,-0.5 0.15,0.19 0.2,0.69 0.19,0.99 -0.04,0.82 -0.27,0.29 0.11,0.87 0.37,0.55 0.44,1.23 0.32,2 -0.21,1.28 -0.95,1.87 -2.09,2.11 -0.09,0.02 -0.16,0.03 -0.25,0.04l-0.19 0.03c-0.06,0.02 -0.02,0 -0.06,0.04 0.58,0.4 0.35,1.85 0.37,2.64 0.02,0.57 0.71,0.16 0.99,0.03z"/>
   </g>
  </g>
  <polygon class="fil2" points="-0,0 12.04,0 12.04,12.04 -0,12.04 "/>
 </g>
</svg>
