<?xml version="1.0" encoding="UTF-8"?>
<!DOCTYPE svg PUBLIC "-//W3C//DTD SVG 1.1//EN" "http://www.w3.org/Graphics/SVG/1.1/DTD/svg11.dtd">
<!-- Creator: CorelDRAW 2020 (64 Bit) -->
<svg xmlns="http://www.w3.org/2000/svg" xml:space="preserve" width="6.7734mm" height="6.7734mm" version="1.1" style="shape-rendering:geometricPrecision; text-rendering:geometricPrecision; image-rendering:optimizeQuality; fill-rule:evenodd; clip-rule:evenodd"
viewBox="0 0 11.41 11.41"
 xmlns:xlink="http://www.w3.org/1999/xlink"
 xmlns:xodm="http://www.corel.com/coreldraw/odm/2003">
 <defs>
  <style type="text/css">
   <![CDATA[
    .fil2 {fill:none}
    .fil1 {fill:#202427}
    .fil0 {fill:white}
   ]]>
  </style>
   <clipPath id="id0">
    <path d="M-0 0l11.41 0 0 11.41 -11.41 0 0 -11.41z"/>
   </clipPath>
 </defs>
 <g id="Camada_x0020_1">
  <metadata id="CorelCorpID_0Corel-Layer"/>
  <g>
  </g>
  <g style="clip-path:url(#id0)">
   <g>
    <circle class="fil0" cx="5.7" cy="5.7" r="5.28"/>
    <path class="fil1" d="M4.91 8.76l1.23 0 0 -2.79c0.13,-0.07 0.26,-0.12 0.39,-0.19 0.28,-0.14 0.63,-0.18 0.8,0.14 0.08,0.15 0.05,0.33 0.05,0.52 0,0.77 0,1.55 0,2.32l1.25 -0c0,-0.58 0,-1.16 0,-1.74 0,-0.56 0.06,-1.11 -0.15,-1.59 -0.18,-0.39 -0.47,-0.71 -0.87,-0.87 -0.34,-0.13 -0.75,-0.16 -1.12,-0.09 -0.13,0.03 -0.24,0.08 -0.35,0.1l0 -0.17 -1.24 0 0 4.36z"/>
    <polygon class="fil1" points="3.02,8.76 4.27,8.76 4.27,4.4 3.02,4.4 "/>
    <path class="fil1" d="M3.63 2.37c-1.1,0.07 -0.96,1.61 0.06,1.56 0.41,-0.02 0.75,-0.37 0.74,-0.81 -0.02,-0.41 -0.37,-0.77 -0.79,-0.75z"/>
   </g>
  </g>
  <polygon class="fil2" points="-0,0 11.41,0 11.41,11.41 -0,11.41 "/>
 </g>
</svg>
