<?xml version="1.0" encoding="UTF-8"?>
<!DOCTYPE svg PUBLIC "-//W3C//DTD SVG 1.1//EN" "http://www.w3.org/Graphics/SVG/1.1/DTD/svg11.dtd">
<!-- Creator: CorelDRAW 2020 (64 Bit) -->
<svg xmlns="http://www.w3.org/2000/svg" xml:space="preserve" width="6.7734mm" height="6.7734mm" version="1.1" style="shape-rendering:geometricPrecision; text-rendering:geometricPrecision; image-rendering:optimizeQuality; fill-rule:evenodd; clip-rule:evenodd"
viewBox="0 0 9.5 9.5"
 xmlns:xlink="http://www.w3.org/1999/xlink"
 xmlns:xodm="http://www.corel.com/coreldraw/odm/2003">
 <defs>
  <style type="text/css">
   <![CDATA[
    .fil2 {fill:none}
    .fil1 {fill:white}
    .fil0 {fill:url(#id1)}
   ]]>
  </style>
   <clipPath id="id0">
    <path d="M-0 0l9.5 0 0 9.5 -9.5 0 0 -9.5z"/>
   </clipPath>
  <linearGradient id="id1" gradientUnits="userSpaceOnUse" x1="4.75" y1="9.5" x2="4.75" y2="-2.49">
   <stop offset="0" style="stop-opacity:1; stop-color:#1387B8"/>
   <stop offset="0.478431" style="stop-opacity:1; stop-color:#0C1E4C"/>
   <stop offset="1" style="stop-opacity:1; stop-color:#111D2E"/>
  </linearGradient>
 </defs>
 <g id="Camada_x0020_1">
  <metadata id="CorelCorpID_0Corel-Layer"/>
  <g>
  </g>
  <g style="clip-path:url(#id0)">
   <g>
    <circle class="fil0" cx="4.75" cy="4.75" r="4.51"/>
    <path class="fil1" d="M6.38 2.05c1.05,0 1.9,0.85 1.9,1.9 0,1.05 -0.85,1.9 -1.9,1.9 -0.22,0 -0.42,-0.04 -0.62,-0.1l-1.59 0.85c-0.03,0.71 -0.61,1.28 -1.32,1.28 -0.73,0 -1.32,-0.59 -1.32,-1.32l-1.18 -0.64c-0.3,-0.9 -0.25,-2.12 0.12,-2.9l2.13 2.24c0.09,-0.02 0.17,-0.03 0.26,-0.03 0.11,0 0.21,0.01 0.32,0.04l1.32 -1.34c0.01,-1.04 0.86,-1.88 1.9,-1.88zm-4.52 4.74c0.03,0.51 0.98,1.04 1.57,0.37 0.55,-0.63 0.06,-1.53 -0.55,-1.57 0.26,0.36 0.37,0.31 0.49,0.58 0.32,0.68 -0.33,1.29 -0.89,1.06 -0.23,-0.09 -0.24,-0.23 -0.62,-0.44zm4.21 -4.01c-0.34,0.09 -0.54,0.23 -0.69,0.46 -0.59,0.89 0.19,2.03 1.21,1.78 0.55,-0.13 1.02,-0.69 0.85,-1.39 -0.13,-0.53 -0.69,-1.04 -1.38,-0.85zm0.02 0.2c-1.27,0.37 -0.69,2.17 0.47,1.85 0.86,-0.24 0.92,-1.33 0.29,-1.71 -0.21,-0.13 -0.48,-0.21 -0.76,-0.13z"/>
   </g>
  </g>
  <polygon class="fil2" points="-0,0 9.5,0 9.5,9.5 -0,9.5 "/>
 </g>
</svg>
