<?xml version="1.0" encoding="UTF-8"?>
<!DOCTYPE svg PUBLIC "-//W3C//DTD SVG 1.1//EN" "http://www.w3.org/Graphics/SVG/1.1/DTD/svg11.dtd">
<!-- Creator: CorelDRAW 2020 (64 Bit) -->
<svg xmlns="http://www.w3.org/2000/svg" xml:space="preserve" width="6.7734mm" height="6.7734mm" version="1.1" style="shape-rendering:geometricPrecision; text-rendering:geometricPrecision; image-rendering:optimizeQuality; fill-rule:evenodd; clip-rule:evenodd"
viewBox="0 0 10.37 10.37"
 xmlns:xlink="http://www.w3.org/1999/xlink"
 xmlns:xodm="http://www.corel.com/coreldraw/odm/2003">
 <defs>
  <style type="text/css">
   <![CDATA[
    .fil2 {fill:none}
    .fil0 {fill:#039BE4}
    .fil1 {fill:white}
   ]]>
  </style>
   <clipPath id="id0">
    <path d="M-0 0l10.37 0 0 10.37 -10.37 0 0 -10.37z"/>
   </clipPath>
 </defs>
 <g id="Camada_x0020_1">
  <metadata id="CorelCorpID_0Corel-Layer"/>
  <g>
  </g>
  <g style="clip-path:url(#id0)">
   <g>
    <circle class="fil0" cx="5.18" cy="5.18" r="5.05"/>
    <path class="fil1" d="M6.71 4.01c0.02,0.07 -0.03,0.09 -0.15,0.2 -0.03,0.03 -0.06,0.05 -0.1,0.08 -0.04,0.03 -0.06,0.06 -0.1,0.09l-0.4 0.35c-0.07,0.06 -0.12,0.12 -0.19,0.17l-0.48 0.44c-0.04,0.03 -0.07,0.05 -0.11,0.09 -0.03,0.03 -0.05,0.06 -0.09,0.09l-0.49 0.44c-0.08,0.08 -0.13,0.11 -0.2,0.18 -0.11,0.11 -0.08,0.08 -0.09,0.28l-0.07 1.08c0.22,-0.02 0.29,-0.17 0.46,-0.33l0.4 -0.38c0.08,0.03 1.07,0.78 1.23,0.9 0.18,0.13 0.37,0.14 0.46,-0.07 0.06,-0.15 0.7,-3.21 0.76,-3.5 0.06,-0.29 0.33,-1.11 -0.24,-0.93 -0.31,0.1 -1.69,0.66 -2.05,0.79 -0.69,0.26 -1.36,0.53 -2.05,0.79 -0.57,0.22 -1.58,0.48 -0.69,0.75l1.08 0.34c0.08,0.01 1.97,-1.22 2.19,-1.35 0.19,-0.12 0.77,-0.54 0.92,-0.5z"/>
   </g>
  </g>
  <polygon class="fil2" points="-0,0 10.37,0 10.37,10.37 -0,10.37 "/>
 </g>
</svg>
